<svg width="65" height="65" viewBox="0 0 65 65" fill="none" xmlns="http://www.w3.org/2000/svg">
<circle cx="32.5" cy="32.5" r="32.5" fill="white"/>
<path d="M46.2812 33C46.2812 33.4227 46.1133 33.8281 45.8145 34.127C45.5156 34.4258 45.1102 34.5938 44.6875 34.5938H34.5938V44.6875C34.5938 45.1102 34.4258 45.5156 34.127 45.8145C33.8281 46.1133 33.4227 46.2812 33 46.2812C32.5773 46.2812 32.1719 46.1133 31.873 45.8145C31.5742 45.5156 31.4062 45.1102 31.4062 44.6875V34.5938H21.3125C20.8898 34.5938 20.4844 34.4258 20.1855 34.127C19.8867 33.8281 19.7188 33.4227 19.7188 33C19.7188 32.5773 19.8867 32.1719 20.1855 31.873C20.4844 31.5742 20.8898 31.4062 21.3125 31.4062H31.4062V21.3125C31.4062 20.8898 31.5742 20.4844 31.873 20.1855C32.1719 19.8867 32.5773 19.7188 33 19.7188C33.4227 19.7188 33.8281 19.8867 34.127 20.1855C34.4258 20.4844 34.5938 20.8898 34.5938 21.3125V31.4062H44.6875C45.1102 31.4062 45.5156 31.5742 45.8145 31.873C46.1133 32.1719 46.2812 32.5773 46.2812 33Z" fill="url(#paint0_linear_716_543)"/>
<defs>
<linearGradient id="paint0_linear_716_543" x1="33" y1="19.7187" x2="33" y2="82.219" gradientUnits="userSpaceOnUse">
<stop stop-color="#059DB0"/>
<stop offset="0.286458" stop-color="#046DB6"/>
<stop offset="0.541667" stop-color="#0339BC"/>
<stop offset="0.791667" stop-color="#0402C2"/>
<stop offset="0.96875" stop-color="#3E01C8"/>
</linearGradient>
</defs>
</svg>
