<svg width="29" height="29" viewBox="0 0 29 29" fill="none" xmlns="http://www.w3.org/2000/svg">
<rect x="1" y="1" width="27" height="27" rx="7" fill="url(#paint0_linear_113_916)" stroke="url(#paint1_linear_113_916)" stroke-width="2"/>
<path d="M12.66 20.5034C12.5177 20.5035 12.3768 20.4755 12.2453 20.4211C12.1139 20.3666 11.9945 20.2867 11.894 20.1859L7.73405 16.0259C7.63058 15.926 7.54805 15.8065 7.49127 15.6743C7.4345 15.5421 7.40461 15.4 7.40336 15.2561C7.40211 15.1123 7.42952 14.9696 7.48399 14.8365C7.53846 14.7034 7.6189 14.5824 7.72062 14.4807C7.82234 14.379 7.94329 14.2985 8.07643 14.2441C8.20957 14.1896 8.35222 14.1622 8.49607 14.1634C8.63991 14.1647 8.78207 14.1946 8.91424 14.2513C9.04641 14.3081 9.16595 14.3906 9.26588 14.4941L12.66 17.8882L20.734 9.81411C20.9384 9.61678 21.212 9.50758 21.4961 9.51005C21.7801 9.51252 22.0518 9.62645 22.2527 9.82731C22.4535 10.0282 22.5675 10.2999 22.5699 10.5839C22.5724 10.868 22.4632 11.1416 22.2659 11.3459L13.4259 20.1859C13.3254 20.2867 13.206 20.3666 13.0746 20.4211C12.9432 20.4755 12.8022 20.5035 12.66 20.5034Z" fill="white"/>
<defs>
<linearGradient id="paint0_linear_113_916" x1="14.5" y1="0" x2="14.5" y2="29" gradientUnits="userSpaceOnUse">
<stop stop-color="#059DB0"/>
<stop offset="0.505208" stop-color="#046DB6"/>
<stop offset="1" stop-color="#0339BC"/>
</linearGradient>
<linearGradient id="paint1_linear_113_916" x1="14.5" y1="0" x2="14.5" y2="29" gradientUnits="userSpaceOnUse">
<stop stop-color="#059DB0"/>
<stop offset="0.505208" stop-color="#046DB6"/>
<stop offset="1" stop-color="#0339BC"/>
</linearGradient>
</defs>
</svg>
