<svg width="4" height="8" viewBox="0 0 4 8" fill="none" xmlns="http://www.w3.org/2000/svg">
<path d="M3.86143 0.158103C3.95381 0.263505 4 0.3883 4 0.53249C4 0.676399 3.95381 0.801054 3.86143 0.906456L1.15473 3.99473L3.87067 7.09354C3.95689 7.19192 4 7.31489 4 7.46245C4 7.61001 3.95381 7.7365 3.86143 7.8419C3.76905 7.9473 3.65968 8 3.5333 8C3.40717 8 3.29792 7.9473 3.20554 7.8419L0.101617 4.28986C0.0646651 4.24769 0.0384297 4.20202 0.0229101 4.15283C0.00763679 4.10365 2.38419e-07 4.05094 2.38419e-07 3.99473C2.38419e-07 3.93852 0.00763679 3.88581 0.0229101 3.83663C0.0384297 3.78744 0.0646651 3.74177 0.101617 3.6996L3.21478 0.147563C3.301 0.0491877 3.40717 0 3.5333 0C3.65968 0 3.76905 0.052701 3.86143 0.158103Z" fill="#717171"/>
</svg>
