<svg width="4" height="8" viewBox="0 0 4 8" fill="none" xmlns="http://www.w3.org/2000/svg">
<path d="M0.138568 0.158103C0.0461894 0.263505 0 0.3883 0 0.53249C0 0.676399 0.0461894 0.801054 0.138568 0.906456L2.84527 3.99473L0.12933 7.09354C0.04311 7.19192 0 7.31489 0 7.46245C0 7.61001 0.0461894 7.7365 0.138568 7.8419C0.230947 7.9473 0.340323 8 0.466697 8C0.592825 8 0.702078 7.9473 0.794457 7.8419L3.89838 4.28986C3.93533 4.24769 3.96157 4.20202 3.97709 4.15283C3.99236 4.10365 4 4.05094 4 3.99473C4 3.93852 3.99236 3.88581 3.97709 3.83663C3.96157 3.78744 3.93533 3.74177 3.89838 3.6996L0.785219 0.147563C0.698999 0.0491877 0.592825 0 0.466697 0C0.340323 0 0.230947 0.052701 0.138568 0.158103Z" fill="#717171"/>
</svg>
