<svg width="8" height="8" viewBox="0 0 8 8" fill="none" xmlns="http://www.w3.org/2000/svg">
<path d="M4.53873 8C4.26662 8 4.07353 7.89752 3.95946 7.69257C3.84495 7.488 3.86389 7.29048 4.01627 7.1L6.54692 4L4.01627 0.9C3.86389 0.709524 3.84495 0.51181 3.95946 0.306857C4.07353 0.102286 4.26662 0 4.53873 0C4.65846 0 4.7673 0.0260953 4.86526 0.0782858C4.96322 0.130857 5.04486 0.195238 5.11017 0.271429L7.86939 3.67143C7.91292 3.71905 7.94558 3.77143 7.96735 3.82857C7.98911 3.88571 8 3.94286 8 4C8 4.05714 7.98911 4.11181 7.96735 4.164C7.94558 4.21657 7.91292 4.27143 7.86939 4.32857L5.11017 7.72857C5.04486 7.80476 4.96322 7.86914 4.86526 7.92172C4.7673 7.97391 4.65846 8 4.53873 8ZM0.652963 8C0.380851 8 0.18776 7.89752 0.0736903 7.69257C-0.0408147 7.488 -0.0218754 7.29048 0.130508 7.1L2.66115 4L0.130508 0.9C-0.0218754 0.709524 -0.0408147 0.51181 0.0736903 0.306857C0.18776 0.102286 0.380851 0 0.652963 0C0.772693 0 0.881538 0.0260953 0.979499 0.0782858C1.07746 0.130857 1.15909 0.195238 1.2244 0.271429L3.98362 3.67143C4.02716 3.71905 4.05981 3.77143 4.08158 3.82857C4.10335 3.88571 4.11423 3.94286 4.11423 4C4.11423 4.05714 4.10335 4.11429 4.08158 4.17143C4.05981 4.22857 4.02716 4.28095 3.98362 4.32857L1.2244 7.72857C1.15909 7.80476 1.07746 7.86914 0.979499 7.92172C0.881538 7.97391 0.772693 8 0.652963 8Z" fill="#717171"/>
</svg>
