<svg width="200" height="200" viewBox="0 0 200 200" fill="none" xmlns="http://www.w3.org/2000/svg">
<path d="M100 0.0625C44.895 0.0625 0.0625 44.895 0.0625 100C0.0625 155.105 44.895 199.938 100 199.938C155.105 199.938 199.938 155.105 199.938 100C199.938 44.895 155.105 0.0625 100 0.0625ZM118.056 64.0869C120.882 60.935 125.717 60.6405 128.904 63.4261C132.123 66.2385 132.45 71.1283 129.635 74.3445L104.846 102.666C101.859 106.078 96.6301 106.31 93.3539 103.175C90.2503 100.205 90.0629 95.3085 92.9304 92.1103L118.056 64.0869ZM74.6566 136.185C71.6523 139.188 66.7822 139.186 63.78 136.181L40.7458 113.124C37.7457 110.121 37.7469 105.255 40.7485 102.254C43.752 99.25 48.622 99.251 51.6242 102.256L74.6601 125.311C77.6614 128.315 77.6599 133.183 74.6566 136.185ZM107.487 133.946C103.678 138.305 96.9756 138.529 92.8838 134.435L71.5862 113.126C68.5845 110.122 68.5863 105.254 71.5901 102.253C74.5937 99.2522 79.4615 99.2546 82.4622 102.258L92.1247 111.931C96.2161 116.027 102.92 115.803 106.729 111.444L148.023 64.1906C150.817 60.9931 155.674 60.6661 158.872 63.4603C162.069 66.2545 162.396 71.1118 159.602 74.3093L107.487 133.946Z" fill="#059DB0"/>
</svg>
