<svg width="8" height="8" viewBox="0 0 8 8" fill="none" xmlns="http://www.w3.org/2000/svg">
<path d="M3.46127 8C3.73338 8 3.92647 7.89752 4.04054 7.69257C4.15505 7.488 4.13611 7.29048 3.98373 7.1L1.45308 4L3.98373 0.9C4.13611 0.709524 4.15505 0.51181 4.04054 0.306857C3.92647 0.102286 3.73338 0 3.46127 0C3.34154 0 3.2327 0.0260953 3.13474 0.0782858C3.03678 0.130857 2.95514 0.195238 2.88983 0.271429L0.130615 3.67143C0.0870767 3.71905 0.0544233 3.77143 0.0326543 3.82857C0.0108852 3.88571 0 3.94286 0 4C0 4.05714 0.0108852 4.11181 0.0326543 4.164C0.0544233 4.21657 0.0870767 4.27143 0.130615 4.32857L2.88983 7.72857C2.95514 7.80476 3.03678 7.86914 3.13474 7.92172C3.2327 7.97391 3.34154 8 3.46127 8ZM7.34704 8C7.61915 8 7.81224 7.89752 7.92631 7.69257C8.04081 7.488 8.02188 7.29048 7.86949 7.1L5.33885 4L7.86949 0.9C8.02188 0.709524 8.04081 0.51181 7.92631 0.306857C7.81224 0.102286 7.61915 0 7.34704 0C7.22731 0 7.11846 0.0260953 7.0205 0.0782858C6.92254 0.130857 6.84091 0.195238 6.7756 0.271429L4.01638 3.67143C3.97284 3.71905 3.94019 3.77143 3.91842 3.82857C3.89665 3.88571 3.88577 3.94286 3.88577 4C3.88577 4.05714 3.89665 4.11429 3.91842 4.17143C3.94019 4.22857 3.97284 4.28095 4.01638 4.32857L6.7756 7.72857C6.84091 7.80476 6.92254 7.86914 7.0205 7.92172C7.11846 7.97391 7.22731 8 7.34704 8Z" fill="#717171"/>
</svg>
