<svg width="105" height="105" viewBox="0 0 105 105" fill="none" xmlns="http://www.w3.org/2000/svg">
<path d="M93.5156 52.5C93.5156 53.8054 92.9971 55.0573 92.074 55.9803C91.151 56.9033 89.8991 57.4219 88.5938 57.4219H57.4219V88.5938C57.4219 89.8991 56.9033 91.151 55.9803 92.074C55.0573 92.9971 53.8054 93.5156 52.5 93.5156C51.1946 93.5156 49.9427 92.9971 49.0197 92.074C48.0967 91.151 47.5781 89.8991 47.5781 88.5938V57.4219H16.4062C15.1009 57.4219 13.849 56.9033 12.926 55.9803C12.0029 55.0573 11.4844 53.8054 11.4844 52.5C11.4844 51.1946 12.0029 49.9427 12.926 49.0197C13.849 48.0967 15.1009 47.5781 16.4062 47.5781H47.5781V16.4062C47.5781 15.1009 48.0967 13.849 49.0197 12.926C49.9427 12.0029 51.1946 11.4844 52.5 11.4844C53.8054 11.4844 55.0573 12.0029 55.9803 12.926C56.9033 13.849 57.4219 15.1009 57.4219 16.4062V47.5781H88.5938C89.8991 47.5781 91.151 48.0967 92.074 49.0197C92.9971 49.9427 93.5156 51.1946 93.5156 52.5Z" fill="url(#paint0_linear_675_806)"/>
<defs>
<linearGradient id="paint0_linear_675_806" x1="52.5" y1="11.4844" x2="52.5" y2="204.5" gradientUnits="userSpaceOnUse">
<stop stop-color="#059DB0"/>
<stop offset="0.286458" stop-color="#046DB6"/>
<stop offset="0.541667" stop-color="#0339BC"/>
<stop offset="0.791667" stop-color="#0402C2"/>
<stop offset="0.96875" stop-color="#3E01C8"/>
</linearGradient>
</defs>
</svg>
