<svg width="316" height="316" viewBox="0 0 316 316" fill="none" xmlns="http://www.w3.org/2000/svg">
<rect width="316" height="316" rx="30" fill="white"/>
<path d="M198.516 157.5C198.516 158.805 197.997 160.057 197.074 160.98C196.151 161.903 194.899 162.422 193.594 162.422H162.422V193.594C162.422 194.899 161.903 196.151 160.98 197.074C160.057 197.997 158.805 198.516 157.5 198.516C156.195 198.516 154.943 197.997 154.02 197.074C153.097 196.151 152.578 194.899 152.578 193.594V162.422H121.406C120.101 162.422 118.849 161.903 117.926 160.98C117.003 160.057 116.484 158.805 116.484 157.5C116.484 156.195 117.003 154.943 117.926 154.02C118.849 153.097 120.101 152.578 121.406 152.578H152.578V121.406C152.578 120.101 153.097 118.849 154.02 117.926C154.943 117.003 156.195 116.484 157.5 116.484C158.805 116.484 160.057 117.003 160.98 117.926C161.903 118.849 162.422 120.101 162.422 121.406V152.578H193.594C194.899 152.578 196.151 153.097 197.074 154.02C197.997 154.943 198.516 156.195 198.516 157.5Z" fill="url(#paint0_linear_216_2260)"/>
<defs>
<linearGradient id="paint0_linear_216_2260" x1="157.5" y1="116.484" x2="157.5" y2="309.5" gradientUnits="userSpaceOnUse">
<stop stop-color="#059DB0"/>
<stop offset="0.286458" stop-color="#046DB6"/>
<stop offset="0.541667" stop-color="#0339BC"/>
<stop offset="0.791667" stop-color="#0402C2"/>
<stop offset="0.96875" stop-color="#3E01C8"/>
</linearGradient>
</defs>
</svg>
